# xmcd
#
# Track frame offsets:
#	187
#	22560
#	43745
#	59955
#	75875
#	86060
#	104660
#	126287
#	146705
#	163412
#	179317
#	194507
#
# Disc length: 2898 seconds
#
# Revision: 1
# Processed by: cddbd v1.5.1PL0 Copyright (c) Steve Scherf et al.
# Submitted via: CDex 1.50Beta5
#
DISCID=aa0b500c
DTITLE=大貫妙子 - CLASSICS
DYEAR=1995
DGENRE=
TTITLE0=黒のクレール
TTITLE1=夏に恋する女たち
TTITLE2=色彩都市
TTITLE3=風の道
TTITLE4=みずうみ
TTITLE5=恋人達の明日
TTITLE6=CARNAVAL
TTITLE7=雨の夜明け
TTITLE8=グランプリ
TTITLE9=レシピー
TTITLE10=海と少年
TTITLE11=突然の贈りもの
EXTD=
EXTT0=
EXTT1=
EXTT2=
EXTT3=
EXTT4=
EXTT5=
EXTT6=
EXTT7=
EXTT8=
EXTT9=
EXTT10=
EXTT11=
PLAYORDER=
